# xmcd CD database file
#
# Track frame offsets:
#	150
#	23292
#	42965
#	65421
#	86732
#	115128
#	136809
#	162954
#	183241
#	207159
#
# Disc length: 3055 seconds
#
# Revision: 0
# Processed by: cddbd v1.5.1PL0 Copyright (c) Steve Scherf et al.
# Submitted via: CDex 1.51
#
DISCID=790bed0a
DTITLE=Kind of Jazz - Kill that Cat
DYEAR=2003
DGENRE=Jazz
TTITLE0=Kill that Cat
TTITLE1=Get Away
TTITLE2=Suddenly Spring
TTITLE3=Zimmermann
TTITLE4=I Hear a Rhapsody
TTITLE5=Arne And
TTITLE6=Peace of Mind
TTITLE7=Flash
TTITLE8=Finikounta
TTITLE9=A Glimpse of Love
EXTD=YEAR: 2003
EXTT0=
EXTT1=
EXTT2=
EXTT3=
EXTT4=
EXTT5=
EXTT6=
EXTT7=
EXTT8=
EXTT9=
PLAYORDER=
